GIL11_fast2_ik
nRows=3
nColumns=375

# SIMM Motion File Header:
name GIL11_fast2_ik
datacolumns 375
datarows 3
otherdata 1
range 0.70000000 0.71667000
endheader
time	pelvis_tx	pelvis_ty	pelvis_tz	pelvis_tilt	pelvis_list	pelvis_rotation	hip_flexion_r	hip_adduction_r	hip_rotation_r	knee_angle_r	ankle_angle_r	hip_flexion_l	hip_adduction_l	hip_rotation_l	knee_angle_l	ankle_angle_l	lumbar_extension	lumbar_bending	lumbar_rotation	subtalar_angle_r	mtp_angle_r	subtalar_angle_l	mtp_angle_l	asis_r_px	asis_r_py	asis_r_pz	asis_l_px	asis_l_py	asis_l_pz	midasis_px	midasis_py	midasis_pz	psis_r_px	psis_r_py	psis_r_pz	psis_l_px	psis_l_py	psis_l_pz	hip_r_px	hip_r_py	hip_r_pz	hip_l_px	hip_l_py	hip_l_pz	midhip_px	midhip_py	midhip_pz	epicondLat_r_px	epicondLat_r_py	epicondLat_r_pz	epicondMed_r_px	epicondMed_r_py	epicondMed_r_pz	thighwand_r_px	thighwand_r_py	thighwand_r_pz	upperleg1_r_px	upperleg1_r_py	upperleg1_r_pz	upperleg2_r_px	upperleg2_r_py	upperleg2_r_pz	malleolusLat_r_px	malleolusLat_r_py	malleolusLat_r_pz	malleolusMedv_r_px	malleolusMedv_r_py	malleolusMedv_r_pz	shankwand_r_px	shankwand_r_py	shankwand_r_pz	lowerleg1_r_px	lowerleg1_r_py	lowerleg1_r_pz	knee_r_px	knee_r_py	knee_r_pz	ankle_r_px	ankle_r_py	ankle_r_pz	toe_r_px	toe_r_py	toe_r_pz	epicondLat_l_px	epicondLat_l_py	epicondLat_l_pz	epicondMed_l_px	epicondMed_l_py	epicondMed_l_pz	thighwand_l_px	thighwand_l_py	thighwand_l_pz	upperleg1_l_px	upperleg1_l_py	upperleg1_l_pz	upperleg2_l_px	upperleg2_l_py	upperleg2_l_pz	malleolusLat_l_px	malleolusLat_l_py	malleolusLat_l_pz	malleolusMedv_l_px	malleolusMedv_l_py	malleolusMedv_l_pz	shankwand_l_px	shankwand_l_py	shankwand_l_pz	lowerleg1_l_px	lowerleg1_l_py	lowerleg1_l_pz	knee_l_px	knee_l_py	knee_l_pz	ankle_l_px	ankle_l_py	ankle_l_pz	toe_l_px	toe_l_py	toe_l_pz	subclavicle_r_px	subclavicle_r_py	subclavicle_r_pz	subclavicle_l_px	subclavicle_l_py	subclavicle_l_pz	neck_px	neck_py	neck_pz	sternalnotch_px	sternalnotch_py	sternalnotch_pz	xyphoidprocess_px	xyphoidprocess_py	xyphoidprocess_pz	midhip_tx	midhip_ty	midhip_tz	hip_r_tx	hip_r_ty	hip_r_tz	hip_l_tx	hip_l_ty	hip_l_tz	knee_r_tx	knee_r_ty	knee_r_tz	knee_l_tx	knee_l_ty	knee_l_tz	ankle_r_tx	ankle_r_ty	ankle_r_tz	ankle_l_tx	ankle_l_ty	ankle_l_tz	midasis_tx	midasis_ty	midasis_tz	asis_r_tx	asis_r_ty	asis_r_tz	asis_l_tx	asis_l_ty	asis_l_tz	psis_r_tx	psis_r_ty	psis_r_tz	psis_l_tx	psis_l_ty	psis_l_tz	epicondLat_r_tx	epicondLat_r_ty	epicondLat_r_tz	epicondLat_l_tx	epicondLat_l_ty	epicondLat_l_tz	epicondMed_r_tx	epicondMed_r_ty	epicondMed_r_tz	epicondMed_l_tx	epicondMed_l_ty	epicondMed_l_tz	malleolusLat_r_tx	malleolusLat_r_ty	malleolusLat_r_tz	malleolusLat_l_tx	malleolusLat_l_ty	malleolusLat_l_tz	malleolusMedv_r_tx	malleolusMedv_r_ty	malleolusMedv_r_tz	malleolusMedv_l_tx	malleolusMedv_l_ty	malleolusMedv_l_tz	neck_tx	neck_ty	neck_tz	subclavicle_r_tx	subclavicle_r_ty	subclavicle_r_tz	subclavicle_l_tx	subclavicle_l_ty	subclavicle_l_tz	sternalnotch_tx	sternalnotch_ty	sternalnotch_tz	xyphoidprocess_tx	xyphoidprocess_ty	xyphoidprocess_tz	thighwand_r_tx	thighwand_r_ty	thighwand_r_tz	thighwand_l_tx	thighwand_l_ty	thighwand_l_tz	upperleg1_r_tx	upperleg1_r_ty	upperleg1_r_tz	upperleg1_l_tx	upperleg1_l_ty	upperleg1_l_tz	upperleg2_r_tx	upperleg2_r_ty	upperleg2_r_tz	upperleg2_l_tx	upperleg2_l_ty	upperleg2_l_tz	shankwand_r_tx	shankwand_r_ty	shankwand_r_tz	shankwand_l_tx	shankwand_l_ty	shankwand_l_tz	lowerleg1_r_tx	lowerleg1_r_ty	lowerleg1_r_tz	lowerleg1_l_tx	lowerleg1_l_ty	lowerleg1_l_tz	toe_r_tx	toe_r_ty	toe_r_tz	toe_l_tx	toe_l_ty	toe_l_tz	ground_force_vx	ground_force_vy	ground_force_vz	ground_force_px	ground_force_py	ground_force_pz	ground_force_vx	ground_force_vy	ground_force_vz	ground_force_px	ground_force_py	ground_force_pz	ground_torque_x	ground_torque_y	ground_torque_z	ground_torque_x	ground_torque_y	ground_torque_z	ground_marker_px	ground_marker_py	ground_marker_pz	ground_marker_px	ground_marker_py	ground_marker_pz	ground_marker_px	ground_marker_py	ground_marker_pz	ground_marker_px	ground_marker_py	ground_marker_pz	ground_marker_px	ground_marker_py	ground_marker_pz	ground_marker_px	ground_marker_py	ground_marker_pz	ground_marker_px	ground_marker_py	ground_marker_pz	ground_marker_px	ground_marker_py	ground_marker_pz	ground_marker_px	ground_marker_py	ground_marker_pz	ground_marker_px	ground_marker_py	ground_marker_pz	ground_marker_px	ground_marker_py	ground_marker_pz	ground_marker_px	ground_marker_py	ground_marker_pz	ground_marker_px	ground_marker_py	ground_marker_pz	ground_marker_px	ground_marker_py	ground_marker_pz	ground_marker_px	ground_marker_py	ground_marker_pz	ground_marker_px	ground_marker_py	ground_marker_pz	ground_marker_px	ground_marker_py	ground_marker_pz	ground_marker_px	ground_marker_py	ground_marker_pz	ground_marker_px	ground_marker_py	ground_marker_pz	ground_marker_px	ground_marker_py	ground_marker_pz	ground_marker_px	ground_marker_py	ground_marker_pz	ground_marker_px	ground_marker_py	ground_marker_pz	ground_marker_px	ground_marker_py	ground_marker_pz	ground_marker_px	ground_marker_py	ground_marker_pz	ground_marker_px	ground_marker_py	ground_marker_pz	ground_marker_px	ground_marker_py	ground_marker_pz	ground_marker_px	ground_marker_py	ground_marker_pz	ground_marker_px	ground_marker_py	ground_marker_pz	ground_marker_px	ground_marker_py	ground_marker_pz	ground_marker_px	ground_marker_py	ground_marker_pz	ground_marker_px	ground_marker_py	ground_marker_pz	ground_marker_px	ground_marker_py	ground_marker_pz	ground_marker_px	ground_marker_py	ground_marker_pz	ground_marker_px	ground_marker_py	ground_marker_pz	ground_marker_px	ground_marker_py	ground_marker_pz	ground_marker_px	ground_marker_py	ground_marker_pz	ground_marker_px	ground_marker_py	ground_marker_pz
      0.70000000	      2.24015739	      0.87004112	     -0.28791232	     -5.32688310	      3.21334337	      2.38534541	     25.03403696	     -6.00367227	     -3.36846476	    -58.74368967	     -0.17706590	      7.36459050	      6.69216762	     11.54254697	    -15.98900894	     10.41579003	     -4.08555741	     -3.84317857	     -2.79761867	      0.00000000	      0.00000000	      0.00000000	      0.00000000	      2.29178198	      0.84896826	     -0.17998010	      2.28173301	      0.86647144	     -0.41434966	      2.25295814	      0.86887771	     -0.28844690	      2.10211998	      0.94115099	     -0.24995678	      2.09633276	      0.94148426	     -0.30435611	      2.17266422	      0.81095917	     -0.21207604	      2.16710280	      0.82010941	     -0.36515866	      2.16988351	      0.81553429	     -0.28861735	      2.32214821	      0.45067493	     -0.13580428	      2.32910280	      0.44795329	     -0.25263468	      2.42890362	      0.63086227	     -0.20719899	      2.34551723	      0.65893248	     -0.16040834	      2.36195849	      0.57259061	     -0.15566055	      2.04739309	      0.16028000	     -0.15932240	      2.07939560	      0.14003214	     -0.22451548	      2.08401492	      0.23003088	     -0.09286565	      2.09795137	      0.23090402	     -0.13490610	      2.30732243	      0.44885902	     -0.19785604	      2.07343547	      0.15833904	     -0.20511026	      2.11274713	      0.06545641	     -0.13364927	      2.22261126	      0.42337837	     -0.40754519	      2.20059033	      0.43860364	     -0.28657106	      2.26392209	      0.55159496	     -0.49217748	      2.19292225	      0.60252928	     -0.44715887	      2.20101838	      0.51670942	     -0.42841901	      2.08287992	      0.06490603	     -0.39278643	      2.09340948	      0.07231399	     -0.32329549	      2.20923086	      0.15923077	     -0.33003009	      2.17032952	      0.16770523	     -0.34413963	      2.18036296	      0.44198248	     -0.34432901	      2.09336264	      0.07924274	     -0.34142859	      2.19771790	      0.02888932	     -0.36734108	      2.26934192	      1.32203981	     -0.23248460	      2.27142985	      1.31624076	     -0.33820714	      2.14279977	      1.36727067	     -0.28603628	      2.26720354	      1.31554853	     -0.28467580	      2.31436988	      1.25078685	     -0.28402990	      2.17648900	      0.82355100	     -0.28707800	      2.16602900	      0.80262700	     -0.20947400	      2.15703200	      0.81186100	     -0.36105400	      2.29914500	      0.43717800	     -0.18975200	      2.17472500	      0.42572600	     -0.34361500	      2.07192100	      0.14988700	     -0.22760300	      2.08841900	      0.06909300	     -0.32838800	      2.25288700	      0.88002100	     -0.28320200	      2.25600700	      0.87275100	     -0.16485400	      2.24976700	      0.88729100	     -0.40154900	      2.06162700	      0.93903800	     -0.24121400	      2.05617400	      0.93896700	     -0.29584800	      2.29553100	      0.43898400	     -0.13189300	      2.18517100	      0.42363000	     -0.40062800	      2.32157400	      0.43631600	     -0.25424900	      2.18731100	      0.43869200	     -0.27973200	      2.05734200	      0.15659000	     -0.19096200	      2.08081200	      0.06925700	     -0.36765800	      2.08669500	      0.15281700	     -0.26028100	      2.09572400	      0.07778900	     -0.30216400	      2.14370300	      1.37791900	     -0.28603900	      2.27123500	      1.32594100	     -0.23264400	      2.27282200	      1.31896000	     -0.33918900	      2.26871100	      1.31874900	     -0.28498900	      2.31275800	      1.25211600	     -0.28400000	      2.41451300	      0.61445000	     -0.19307100	      2.22375400	      0.55101700	     -0.49116200	      2.33035200	      0.64043100	     -0.14636600	      2.15948100	      0.60121600	     -0.43970200	      2.34907000	      0.55401000	     -0.14760700	      2.17015900	      0.51533300	     -0.42126300	      2.09303600	      0.21922800	     -0.11353200	      2.20445000	      0.17469700	     -0.31301700	      2.10244400	      0.22769800	     -0.15579800	      2.16586500	      0.18297500	     -0.32690100	      2.12736000	      0.07131900	     -0.20104100	      2.19378500	      0.04120900	     -0.34990500	      0.00000000	      0.00000000	      0.00000000	      1.58256323	      0.00000000	     -0.17446542	    -11.04331701	    414.43577732	     32.53060766	      2.19950684	      0.00000000	     -0.34753442	      0.00000000	      0.00000000	      0.00000000	      0.00000000	      0.32895166	      0.00000000	      2.17648888	      0.82355112	     -0.28707811	      2.16602921	      0.80262655	     -0.20947386	      2.15703225	      0.81186086	     -0.36105415	      2.29914546	      0.43717813	     -0.18975201	      2.17472506	      0.42572638	     -0.34361482	      2.07192063	      0.14988682	     -0.22760302	      2.08841944	      0.06909268	     -0.32838795	      2.25288677	      0.88002098	     -0.28320178	      2.25600672	      0.87275088	     -0.16485450	      2.24976659	      0.88729101	     -0.40154907	      2.06162715	      0.93903822	     -0.24121407	      2.05617380	      0.93896735	     -0.29584801	      2.29553103	      0.43898401	     -0.13189292	      2.18517137	      0.42363009	     -0.40062782	      2.32157445	      0.43631577	     -0.25424933	      2.18731141	      0.43869212	     -0.27973220	      2.05734229	      0.15658975	     -0.19096233	      2.08081222	      0.06925696	     -0.36765757	      2.08669472	      0.15281691	     -0.26028109	      2.09572363	      0.07778917	     -0.30216444	      2.14370275	      1.37791884	     -0.28603870	      2.27123475	      1.32594061	     -0.23264420	      2.27282238	      1.31896031	     -0.33918947	      2.26871133	      1.31874919	     -0.28498906	      2.31275797	      1.25211596	     -0.28399953	      2.41451335	      0.61444986	     -0.19307140	      2.22375369	      0.55101705	     -0.49116236	      2.33035231	      0.64043099	     -0.14636555	      2.15948081	      0.60121638	     -0.43970215	      2.34906960	      0.55400991	     -0.14760680	      2.17015910	      0.51533270	     -0.42126334	      2.09303594	      0.21922754	     -0.11353184	      2.20445013	      0.17469724	     -0.31301749	      2.10244417	      0.22769834	     -0.15579775	      2.16586518	      0.18297498	     -0.32690051	      2.12736034	      0.07131872	     -0.20104149	      2.19378471	      0.04120932	     -0.34990519
      0.70833000	      2.25298819	      0.87011094	     -0.28785250	     -5.48565244	      2.83133223	      2.43144940	     26.61283005	     -5.59616235	     -3.80750353	    -57.59573508	      0.94353945	      6.05241538	      6.27249748	     12.01307014	    -14.80765844	     10.38371244	     -3.99131662	     -3.40029886	     -3.29617458	      0.00000000	      0.00000000	      0.00000000	      0.00000000	      2.30471025	      0.84960554	     -0.17985766	      2.29437219	      0.86559830	     -0.41432257	      2.26578495	      0.86890907	     -0.28839760	      2.11519968	      0.94184530	     -0.25016867	      2.10933522	      0.94183752	     -0.30456075	      2.18544339	      0.81171245	     -0.21153434	      2.17968693	      0.81987344	     -0.36466568	      2.18256516	      0.81579294	     -0.28810001	      2.34350036	      0.45497303	     -0.13588678	      2.35107645	      0.45287671	     -0.25269142	      2.44606790	      0.63803888	     -0.20608785	      2.36178580	      0.66384168	     -0.15959768	      2.38035220	      0.57791861	     -0.15509329	      2.08197823	      0.15319651	     -0.16141317	      2.11514562	      0.13458611	     -0.22651195	      2.11513597	      0.22433815	     -0.09461290	      2.12920467	      0.22595219	     -0.13658732	      2.32884974	      0.45326260	     -0.19802952	      2.10828350	      0.15255331	     -0.20708724	      2.15303554	      0.06250877	     -0.13519497	      2.22533326	      0.42186422	     -0.40683676	      2.20306542	      0.43763563	     -0.28597785	      2.27033220	      0.54899660	     -0.49122371	      2.20041038	      0.60171344	     -0.44657137	      2.20622667	      0.51571454	     -0.42780600	      2.08379587	      0.06489896	     -0.39148943	      2.09406785	      0.07248930	     -0.32197962	      2.21035838	      0.15879278	     -0.32851361	      2.17156102	      0.16741692	     -0.34281742	      2.18299333	      0.44163739	     -0.34388975	      2.09413334	      0.07935656	     -0.34013604	      2.19831443	      0.02832876	     -0.36542255	      2.28249189	      1.32225538	     -0.23198065	      2.28547082	      1.31642288	     -0.33768000	      2.15646955	      1.36763785	     -0.28661880	      2.28078867	      1.31575178	     -0.28418633	      2.32786206	      1.25092802	     -0.28312139	      2.18955600	      0.82438900	     -0.28718200	      2.17854400	      0.80340000	     -0.20886200	      2.16927300	      0.81173400	     -0.36047800	      2.32108200	      0.44064200	     -0.19021700	      2.17708800	      0.42584100	     -0.34319000	      2.10677600	      0.14307500	     -0.22825900	      2.08905000	      0.06967800	     -0.32764800	      2.26546100	      0.88011200	     -0.28322900	      2.26879000	      0.87356400	     -0.16502500	      2.26213300	      0.88665900	     -0.40143400	      2.07458300	      0.93972200	     -0.24105000	      2.06901500	      0.93957300	     -0.29566900	      2.31716300	      0.44207600	     -0.13236800	      2.18773700	      0.42350500	     -0.40015600	      2.34403900	      0.44149600	     -0.25545900	      2.18687800	      0.43935800	     -0.27891300	      2.09205300	      0.14898400	     -0.19153900	      2.08096400	      0.06996700	     -0.36682100	      2.12135000	      0.14681000	     -0.26092600	      2.09556700	      0.07853400	     -0.30125800	      2.15774500	      1.37794800	     -0.28652300	      2.28443100	      1.32649000	     -0.23225000	      2.28638700	      1.31923100	     -0.33821100	      2.28212400	      1.31902700	     -0.28470000	      2.32615900	      1.25254800	     -0.28296000	      2.43127000	      0.62141800	     -0.19221300	      2.22981200	      0.55027300	     -0.49014200	      2.34647300	      0.64470800	     -0.14589000	      2.16670700	      0.60186300	     -0.43945700	      2.36761700	      0.55923600	     -0.14774400	      2.17420200	      0.51667000	     -0.42091700	      2.12502100	      0.21274100	     -0.11400700	      2.20583400	      0.17442700	     -0.31346000	      2.13396100	      0.22178700	     -0.15604500	      2.16852300	      0.18444600	     -0.32582600	      2.16692000	      0.06838000	     -0.20073200	      2.19387100	      0.04127800	     -0.34961900	      0.00000000	      0.00000000	      0.00000000	      1.58386328	      0.00000000	     -0.17483913	     -7.57497719	    411.09272680	     30.93857821	      2.20331372	      0.00000000	     -0.34698532	      0.00000000	      0.00000000	      0.00000000	      0.00000000	      0.20532642	      0.00000000	      2.18955588	      0.82438898	     -0.28718162	      2.17854381	      0.80339986	     -0.20886174	      2.16927314	      0.81173432	     -0.36047772	      2.32108212	      0.44064227	     -0.19021721	      2.17708802	      0.42584112	     -0.34318981	      2.10677648	      0.14307456	     -0.22825865	      2.08904958	      0.06967805	     -0.32764792	      2.26546144	      0.88011163	     -0.28322935	      2.26878953	      0.87356436	     -0.16502453	      2.26213312	      0.88665891	     -0.40143418	      2.07458329	      0.93972236	     -0.24105024	      2.06901479	      0.93957305	     -0.29566944	      2.31716251	      0.44207552	     -0.13236754	      2.18773699	      0.42350474	     -0.40015596	      2.34403944	      0.44149622	     -0.25545877	      2.18687820	      0.43935809	     -0.27891305	      2.09205341	      0.14898367	     -0.19153924	      2.08096409	      0.06996728	     -0.36682114	      2.12134981	      0.14680968	     -0.26092562	      2.09556723	      0.07853406	     -0.30125752	      2.15774488	      1.37794757	     -0.28652346	      2.28443098	      1.32648957	     -0.23224954	      2.28638721	      1.31923079	     -0.33821139	      2.28212428	      1.31902719	     -0.28470013	      2.32615948	      1.25254834	     -0.28295976	      2.43126988	      0.62141818	     -0.19221348	      2.22981191	      0.55027306	     -0.49014187	      2.34647250	      0.64470792	     -0.14588974	      2.16670656	      0.60186321	     -0.43945655	      2.36761737	      0.55923581	     -0.14774416	      2.17420220	      0.51666999	     -0.42091715	      2.12502050	      0.21274105	     -0.11400669	      2.20583415	      0.17442687	     -0.31346026	      2.13396120	      0.22178710	     -0.15604489	      2.16852260	      0.18444638	     -0.32582581	      2.16692019	      0.06837966	     -0.20073208	      2.19387078	      0.04127785	     -0.34961939
      0.71667000	      2.26570214	      0.86981703	     -0.28771829	     -5.64525446	      2.46808139	      2.49784492	     28.09982662	     -5.21942017	     -4.20801767	    -56.20496239	      1.91936834	      4.71981104	      5.85941205	     12.62347385	    -13.56949472	     10.29326047	     -3.87528753	     -2.99030998	     -3.57790246	      0.00000000	      0.00000000	      0.00000000	      0.00000000	      2.31755976	      0.84983958	     -0.17968951	      2.30684908	      0.86440768	     -0.41423053	      2.27849459	      0.86857678	     -0.28827843	      2.12817686	      0.94216039	     -0.25023770	      2.12221583	      0.94183169	     -0.30461829	      2.19813398	      0.81207759	     -0.21092085	      2.19212793	      0.81930545	     -0.36408949	      2.19513095	      0.81569152	     -0.28750517	      2.36419105	      0.45884899	     -0.13593967	      2.37222565	      0.45734390	     -0.25272278	      2.46271287	      0.64450118	     -0.20513587	      2.37768917	      0.66816954	     -0.15886093	      2.39823621	      0.58268662	     -0.15458721	      2.11712822	      0.14576202	     -0.16294418	      2.15135321	      0.12888384	     -0.22796765	      2.14665221	      0.21825871	     -0.09589637	      2.16076444	      0.22062672	     -0.13782039	      2.34958437	      0.45729078	     -0.19815674	      2.14358236	      0.14646425	     -0.20853131	      2.19367013	      0.05961182	     -0.13623239	      2.22788466	      0.42025840	     -0.40599687	      2.20509669	      0.43659195	     -0.28530970	      2.27677601	      0.54619824	     -0.49000578	      2.20788562	      0.60068828	     -0.44588202	      2.21135146	      0.51456808	     -0.42709170	      2.08479166	      0.06474880	     -0.39029525	      2.09464332	      0.07255020	     -0.32074797	      2.21135245	      0.15831952	     -0.32683690	      2.17268752	      0.16706051	     -0.34142552	      2.18533254	      0.44122255	     -0.34342557	      2.09485744	      0.07935016	     -0.33892856	      2.19890365	      0.02761466	     -0.36331645	      2.29559638	      1.32212065	     -0.23166523	      2.29902954	      1.31629911	     -0.33735140	      2.16985746	      1.36763365	     -0.28684510	      2.29411400	      1.31562557	     -0.28387871	      2.34111886	      1.25075562	     -0.28261773	      2.20209300	      0.82434800	     -0.28710100	      2.19108500	      0.80382600	     -0.20822700	      2.18149200	      0.81132500	     -0.35986700	      2.34236000	      0.44386000	     -0.19067200	      2.17930400	      0.42597300	     -0.34283500	      2.14220200	      0.13606700	     -0.22855500	      2.08968700	      0.07034200	     -0.32684100	      2.27803800	      0.87988100	     -0.28322500	      2.28161000	      0.87400700	     -0.16522600	      2.27446500	      0.88575500	     -0.40122400	      2.08752100	      0.94007400	     -0.24081400	      2.08188500	      0.93987100	     -0.29543400	      2.33821800	      0.44494000	     -0.13283000	      2.19028800	      0.42339600	     -0.39972700	      2.36591200	      0.44577200	     -0.25612900	      2.18541200	      0.44022100	     -0.27747600	      2.12736600	      0.14118600	     -0.19176200	      2.08107700	      0.07075500	     -0.36590100	      2.15654600	      0.14026800	     -0.26126000	      2.09568500	      0.07970600	     -0.30056800	      2.17104200	      1.37796100	     -0.28675200	      2.29767500	      1.32673500	     -0.23207100	      2.29995100	      1.31951700	     -0.33761000	      2.29560900	      1.31899500	     -0.28440300	      2.33968900	      1.25289100	     -0.28245400	      2.44757200	      0.62781900	     -0.19154500	      2.23609900	      0.54952800	     -0.48902100	      2.36244400	      0.64832800	     -0.14562900	      2.17362000	      0.60222400	     -0.43944700	      2.38586400	      0.56374600	     -0.14779800	      2.17808000	      0.51682200	     -0.42018300	      2.15743000	      0.20612400	     -0.11418100	      2.20725600	      0.17419300	     -0.31397200	      2.16600600	      0.21558100	     -0.15632400	      2.16933300	      0.18465800	     -0.32585900	      2.20680800	      0.06551400	     -0.19992400	      2.19394800	      0.04135500	     -0.34924600	      0.00000000	      0.00000000	      0.00000000	      1.58516187	      0.00000000	     -0.17528531	     -3.87293916	    411.01356015	     30.17897938	      2.20624170	      0.00000000	     -0.34643182	      0.00000000	      0.00000000	      0.00000000	      0.00000000	      0.16792114	      0.00000000	      2.20209336	      0.82434785	     -0.28710073	      2.19108486	      0.80382556	     -0.20822702	      2.18149209	      0.81132472	     -0.35986656	      2.34236002	      0.44386017	     -0.19067195	      2.17930412	      0.42597309	     -0.34283453	      2.14220166	      0.13606696	     -0.22855477	      2.08968663	      0.07034241	     -0.32684100	      2.27803755	      0.87988091	     -0.28322512	      2.28161001	      0.87400699	     -0.16522604	      2.27446532	      0.88575488	     -0.40122417	      2.08752084	      0.94007385	     -0.24081366	      2.08188534	      0.93987072	     -0.29543376	      2.33821797	      0.44494033	     -0.13283014	      2.19028807	      0.42339614	     -0.39972666	      2.36591172	      0.44577166	     -0.25612861	      2.18541193	      0.44022089	     -0.27747616	      2.12736583	      0.14118636	     -0.19176224	      2.08107734	      0.07075524	     -0.36590141	      2.15654564	      0.14026804	     -0.26126000	      2.09568524	      0.07970601	     -0.30056804	      2.17104220	      1.37796092	     -0.28675178	      2.29767489	      1.32673478	     -0.23207077	      2.29995084	      1.31951678	     -0.33761027	      2.29560900	      1.31899536	     -0.28440309	      2.33968878	      1.25289059	     -0.28245392	      2.44757247	      0.62781918	     -0.19154531	      2.23609877	      0.54952812	     -0.48902142	      2.36244369	      0.64832830	     -0.14562906	      2.17361999	      0.60222435	     -0.43944708	      2.38586450	      0.56374574	     -0.14779754	      2.17808032	      0.51682168	     -0.42018300	      2.15743041	      0.20612386	     -0.11418114	      2.20725632	      0.17419299	     -0.31397167	      2.16600609	      0.21558082	     -0.15632354	      2.16933346	      0.18465760	     -0.32585895	      2.20680761	      0.06551395	     -0.19992356	      2.19394827	      0.04135536	     -0.34924644
